/* XPM */
static char *symbol_xpm[] = {
/* columns rows colors chars-per-pixel */
"32 32 5 1",
"X c Black",
"  c #FFFFFF",
"O c #3F3F3F",
"o c #BFBFBF",
". c #7F7F7F",
/* pixels */
"         .X          .X         ",
"         .X          .X         ",
"   XXX   .X          .X         ",
"  oX     .X          .X         ",
"  .XXO   .X          .X         ",
"  oo O.  .X          .X         ",
"  .O O.  .X          .X         ",
"   OXO   .X          .X         ",
"         .X          .X         ",
".........OX..........OX.........",
"XXXXXXXXXXXXXXXXXXXXXXXXXXXXXXXX",
"         .X          .X         ",
"         .X          .X         ",
"         .X    ..    .X   o.o   ",
"         .X   OO.O   .X  oO.X   ",
"         .X   .  X   .X  .. ..  ",
"         .X     O.   .X  oX.X.  ",
"         .X    OO    .X   o...  ",
"         .X   OO..   .X  .O.X   ",
"         .X   ....   .X   ..o   ",
"         .X          .X         ",
".........OX..........OX.........",
"XXXXXXXXXXXXXXXXXXXXXXXXXXXXXXXX",
"         .X          .X         ",
"         .X          .X         ",
"         .X          .X         ",
"         .X          .X         ",
"         .X          .X         ",
"         .X          .X         ",
"         .X          .X         ",
"         .X          .X         ",
"         .X          .X         "
};
